Coordinates
version=1
nRows=15
nColumns=33
inDegrees=yes

Units are S.I. units (second, meters, Newtons, ...)
Angles are in degrees.

endheader
time	ground_thorax_rot_x	ground_thorax_rot_y	ground_thorax_rot_z	ground_thorax_tx	ground_thorax_ty	ground_thorax_tz	clav_prot_r	clav_elev_r	scapula_abduction_r	scapula_elevation_r	scapula_upward_rot_r	scapula_winging_r	shoulder_elv_r	plane_of_elev_r	axial_rot_r	elbow_flexion_r	pro_sup_r	wrist_flex_r	wrist_dev_r	clav_prot_l	clav_elev_l	scapula_abduction_l	scapula_elevation_l	scapula_upward_rot_l	scapula_winging_l	shoulder_elv_l	plane_of_elev_l	axial_rot_l	elbow_flexion_l	pro_sup_l	wrist_flex_l	wrist_dev_l	
0.5600	0.236238	-1.887353	0.829920	-0.161377	0.986377	-0.005573	-4.982724	0.012192	-3.962698	5.192051	5.134624	-1.821680	39.380644	-27.840434	22.891019	74.451821	-7.054445	9.141145	-0.141872	-6.179298	-4.747161	7.805362	-3.480749	-4.716377	-2.353190	43.663752	-26.339402	-3.569233	75.311092	10.975968	14.394044	-0.670791	
0.5700	0.153242	-1.928830	0.855072	-0.161384	0.986254	-0.005930	-4.717385	-0.317981	-3.647668	5.095257	4.619645	-1.732308	39.594420	-26.689717	21.927976	73.799275	-7.709106	7.607594	0.672958	-6.004197	-5.006246	7.462175	-3.272109	-4.785219	-2.356456	43.905331	-25.159526	-3.243363	74.627294	10.750850	15.458247	1.543544	
0.5800	0.072425	-1.969047	0.892850	-0.161387	0.986142	-0.006305	-4.441471	-0.689565	-3.312688	4.969694	4.082739	-1.637576	39.840120	-25.518648	20.973779	73.014707	-8.333660	6.169879	1.443791	-5.802969	-5.299008	7.066046	-3.031945	-4.851408	-2.357072	44.153663	-23.998439	-2.918004	73.782453	10.540058	16.448143	3.587079	
0.5900	-0.009935	-2.005983	0.947896	-0.161411	0.985990	-0.006701	-4.145152	-1.079856	-2.957758	4.846224	3.498890	-1.537214	40.116235	-24.294430	19.994473	72.092269	-8.942623	4.783079	2.205026	-5.563366	-5.590972	6.605334	-2.795559	-4.922412	-2.344528	44.399945	-22.824766	-2.580171	72.771205	10.340058	17.403045	5.485409	
0.6000	-0.085956	-2.041434	1.013377	-0.161431	0.985868	-0.007109	-3.846454	-1.512446	-2.576356	4.677169	2.934130	-1.441189	40.409912	-23.079139	19.055702	71.025180	-9.466104	3.540802	2.894103	-5.296040	-5.920175	6.083439	-2.518546	-4.976395	-2.325839	44.642027	-21.698947	-2.245377	71.582754	10.180395	18.249765	7.105736	
0.6100	-0.167461	-2.074729	1.081727	-0.161475	0.985678	-0.007533	-3.521677	-1.953704	-2.179980	4.528718	2.298891	-1.335410	40.740790	-21.780356	18.048287	69.838803	-9.973162	2.233018	3.644604	-4.988135	-6.230675	5.503718	-2.268361	-5.050972	-2.292750	44.887699	-20.527758	-1.864274	70.252564	10.022518	19.152454	8.716986	
0.6200	-0.243646	-2.108524	1.151543	-0.161507	0.985509	-0.007964	-3.195185	-2.431948	-1.766316	4.342381	1.674921	-1.230087	41.096428	-20.480572	17.070165	68.530989	-10.383482	0.977645	4.372776	-4.658696	-6.572645	4.881986	-1.988750	-5.123209	-2.258226	45.141776	-19.392444	-1.476343	68.780869	9.893492	20.009520	10.181647	
0.6300	-0.322221	-2.141377	1.212133	-0.161547	0.985299	-0.008397	-2.855795	-2.922350	-1.352605	4.167194	0.996380	-1.114284	41.495728	-19.100236	16.045179	67.107898	-10.723990	-0.323524	5.152136	-4.295391	-6.904081	4.214185	-1.729366	-5.218875	-2.212499	45.409316	-18.224444	-1.045507	67.175074	9.763015	20.892146	11.600287	
0.6400	-0.391714	-2.173075	1.270821	-0.161559	0.985129	-0.008823	-2.528895	-3.436024	-0.929902	3.948453	0.374730	-1.007466	41.888519	-17.740722	15.081356	65.556357	-10.932386	-1.527636	5.872157	-3.917183	-7.263746	3.513471	-1.439028	-5.301341	-2.163604	45.679673	-17.112751	-0.631875	65.435382	9.669116	21.665621	12.796339	
0.6500	-0.458400	-2.202415	1.319965	-0.161565	0.984949	-0.009238	-2.199484	-3.951139	-0.500847	3.724924	-0.237298	-0.903528	42.284324	-16.350777	14.121586	63.885501	-11.057937	-2.717859	6.593364	-3.513164	-7.618297	2.774058	-1.156435	-5.389076	-2.103777	45.960553	-16.013146	-0.220763	63.586371	9.585121	22.388987	13.878946	
0.6600	-0.516042	-2.227102	1.369177	-0.161558	0.984783	-0.009634	-1.878547	-4.456259	-0.064813	3.489425	-0.795286	-0.814329	42.658019	-14.963310	13.209516	62.084433	-11.066034	-3.828913	7.279560	-3.085833	-7.972985	1.996071	-0.873902	-5.475532	-2.030321	46.251181	-14.960464	0.152997	61.635283	9.514716	22.978357	14.748413	
0.6700	-0.571991	-2.250024	1.400688	-0.161547	0.984595	-0.010003	-1.554700	-4.944218	0.370435	3.269996	-1.353295	-0.729382	43.033292	-13.522882	12.286923	60.170859	-10.999849	-4.931687	7.990895	-2.627765	-8.303221	1.177446	-0.621401	-5.578026	-1.937794	46.561895	-13.911046	0.515862	59.607025	9.428923	23.492616	15.510451	
0.6800	-0.623019	-2.269665	1.416437	-0.161514	0.984420	-0.010348	-1.238158	-5.416787	0.804533	3.049757	-1.873491	-0.654708	43.394477	-12.066467	11.393904	58.140362	-10.847376	-5.967162	8.689047	-2.148229	-8.620127	0.327814	-0.383469	-5.684446	-1.828479	46.888116	-12.894682	0.839495	57.520754	9.330185	23.871218	16.111577	
0.6900	-0.670704	-2.286238	1.409556	-0.161466	0.984254	-0.010673	-0.924390	-5.872151	1.237149	2.836577	-2.371521	-0.587585	43.756773	-10.584218	10.532680	56.007706	-10.633271	-6.942769	9.386045	-1.648017	-8.914464	-0.549820	-0.168773	-5.795107	-1.700026	47.223483	-11.890909	1.133111	55.385372	9.204497	24.134940	16.602024	
0.7000	-0.710720	-2.295032	1.405683	-0.161403	0.984112	-0.010987	-0.613290	-6.299822	1.670603	2.636523	-2.838610	-0.532920	44.112317	-9.110197	9.733051	53.782402	-10.365284	-7.842424	10.066233	-1.131934	-9.184294	-1.447367	0.021379	-5.909219	-1.552651	47.548075	-10.908158	1.387698	53.205816	9.058957	24.288724	16.986539	
